<?xml version="1.0" encoding="utf-8"?>
<!-- Generator: Adobe Illustrator 21.1.0, SVG Export Plug-In . SVG Version: 6.00 Build 0)  -->
<svg version="1.1" id="Layer_1" xmlns="http://www.w3.org/2000/svg" xmlns:xlink="http://www.w3.org/1999/xlink" x="0px" y="0px"
	 width="16px" height="16px" viewBox="0 0 16 16" style="enable-background:new 0 0 16 16;" xml:space="preserve">
<style type="text/css">
	.st0{fill:#D9534F;}
</style>
<path class="st0" d="M9.1,12.8v-1.7c0-0.1,0-0.2-0.1-0.2c-0.1-0.1-0.1-0.1-0.2-0.1H7.1c-0.1,0-0.1,0-0.2,0.1
	c-0.1,0.1-0.1,0.1-0.1,0.2v1.7c0,0.1,0,0.2,0.1,0.2c0.1,0.1,0.1,0.1,0.2,0.1h1.7c0.1,0,0.1,0,0.2-0.1C9.1,13,9.1,12.9,9.1,12.8z
	 M9.1,9.5l0.2-4.1c0-0.1,0-0.1-0.1-0.2C9.2,5.2,9.1,5.2,9,5.2H7c-0.1,0-0.2,0-0.2,0.1c-0.1,0-0.1,0.1-0.1,0.2l0.2,4.1
	c0,0.1,0.1,0.1,0.2,0.1c0.1,0,0.1,0.1,0.2,0.1h1.6c0.1,0,0.1,0,0.2-0.1C9.1,9.6,9.1,9.6,9.1,9.5L9.1,9.5z M9,1.2l6.9,12.6
	c0.2,0.3,0.2,0.8,0,1.1c-0.2,0.4-0.6,0.6-1,0.6H1.1c-0.4,0-0.8-0.2-1-0.6c-0.2-0.3-0.2-0.8,0-1.1L7,1.2C7.1,1,7.2,0.8,7.4,0.7
	c0.4-0.2,0.8-0.2,1.2,0C8.8,0.8,8.9,1,9,1.2z"/>
</svg>
